<?xml version="1.0" encoding="utf-8"?>
<!-- Generator: Adobe Illustrator 16.0.0, SVG Export Plug-In . SVG Version: 6.00 Build 0)  -->
<!DOCTYPE svg PUBLIC "-//W3C//DTD SVG 1.1//EN" "http://www.w3.org/Graphics/SVG/1.1/DTD/svg11.dtd">
<svg version="1.1" id="Layer_1" xmlns="http://www.w3.org/2000/svg" xmlns:xlink="http://www.w3.org/1999/xlink" x="0px" y="0px"
	 width="218.001px" height="217px" viewBox="0 0 218.001 217" enable-background="new 0 0 218.001 217" xml:space="preserve">
<path fill="#FFFF66" d="M218,108.5c0,59.922-48.801,108.5-109,108.5S0,168.422,0,108.5C0,48.577,48.801,0,109,0
	S218,48.577,218,108.5"/>
<path fill="#FFCC00" d="M205.445,108.5c0,53.012-43.181,95.986-96.445,95.986S12.556,161.512,12.556,108.5
	c0-53.013,43.18-95.986,96.444-95.986S205.445,55.488,205.445,108.5"/>
<path fill="#FF0099" d="M191.178,108.5c0,44.922-36.409,81.338-81.321,81.338c-44.914,0-81.322-36.416-81.322-81.338
	c0-44.924,36.408-81.34,81.322-81.34C154.769,27.161,191.178,63.577,191.178,108.5"/>
<polygon fill="#FFFFFF" points="106.024,54.79 83.976,54.79 83.976,64.734 81.182,64.734 81.182,54.79 59.128,54.79 59.128,104.364 
	81.182,104.364 81.182,94.418 83.976,94.418 83.976,104.364 106.024,104.364 "/>
<path fill="#FFFFFF" d="M106.024,162.286v-23.418h-9.488v-2.848h9.488V112.6H82.376c-6.325,0-12.274,2.531-16.721,7.281
	c-4.517,4.668-6.928,10.916-6.928,17.561c0,6.648,2.411,12.896,6.928,17.564c4.446,4.75,10.396,7.279,16.721,7.279H106.024z"/>
<polygon fill="#FFFFFF" points="148.152,137.442 161.096,162.231 113.901,162.231 113.901,112.655 161.096,112.655 "/>
<path fill="#FFFFFF" d="M161.13,104.364h-22.277v-9.882h-2.705v9.882h-22.28V79.539c0-6.638,2.409-12.889,6.922-17.551
	c4.441-4.748,10.388-7.274,16.71-7.274c6.319,0,12.269,2.526,16.709,7.274c4.513,4.662,6.922,10.913,6.922,17.551V104.364z"/>
</svg>
